<?xml version="1.0" encoding="UTF-8"?>
<svg id="Layer_1" data-name="Layer 1" xmlns="http://www.w3.org/2000/svg" viewBox="0 0 2000 2000">
  <defs>
    <style>
      .cls-1 {
        fill: #25b5a3;
      }

      .cls-2 {
        fill: #56c1ab;
      }

      .cls-3 {
        fill: #10736e;
      }
    </style>
  </defs>
  <g>
    <g>
      <path class="cls-1" d="M1115.12,966.77c0,4.97-1.01,10.35-3.03,16.14-2.02,5.79-5.2,11.47-9.53,17.05-4.33,5.58-9.87,10.1-16.6,13.58-6.73,3.48-14.58,5.22-23.54,5.22-6.79,0-12.97-.78-18.53-2.34-5.56-1.56-10.61-4-15.15-7.3-4.54-3.3-8.71-7.65-12.52-13.05-3.4-4.9-6.3-10.39-8.7-16.46-2.4-6.07-4.2-12.55-5.4-19.44-1.2-6.89-1.8-14.2-1.8-21.95,0-12.57,1.51-23.83,4.52-33.77,3.02-9.94,7.33-18.45,12.96-25.52,5.62-7.07,12.21-12.45,19.76-16.14,7.55-3.69,15.6-5.54,24.15-5.54,10.42,0,19.7,2.52,27.84,7.56,8.14,5.04,14.37,11.28,18.71,18.7,4.33,7.42,6.5,14.44,6.5,21.04,0,3.62-1.05,6.82-3.16,9.59-2.11,2.77-4.65,4.15-7.64,4.15-3.34,0-5.84-.96-7.51-2.88-1.67-1.92-3.53-5.22-5.58-9.91-3.4-7.74-7.39-13.53-11.99-17.37-4.6-3.84-10.26-5.75-17-5.75-10.72,0-19.25,4.94-25.6,14.81-6.35,9.87-9.53,23.9-9.53,42.08,0,12.14,1.4,22.25,4.22,30.31,2.81,8.06,6.79,14.08,11.95,18.06,5.15,3.98,11.18,5.97,18.09,5.97,7.49,0,13.83-2.25,19.02-6.77,5.18-4.51,9.09-11.13,11.73-19.87,1.11-4.12,2.49-7.47,4.13-10.07,1.64-2.59,4.27-3.89,7.91-3.89,3.1,0,5.77,1.31,7.99,3.94,2.22,2.63,3.34,5.9,3.34,9.8Z"/>
      <path class="cls-1" d="M1266.61,876.43v113.68h54.57c4.35,0,7.69,1.24,10.02,3.73,2.33,2.49,3.49,5.61,3.49,9.38s-1.15,6.94-3.44,9.32c-2.3,2.38-5.65,3.57-10.06,3.57h-64.99c-5.86,0-10.08-1.53-12.64-4.58-2.57-3.05-3.85-7.99-3.85-14.81v-120.28c0-6.39,1.22-11.19,3.67-14.38,2.45-3.2,5.66-4.79,9.65-4.79s7.33,1.58,9.83,4.74c2.51,3.16,3.76,7.97,3.76,14.44Z"/>
      <path class="cls-1" d="M1445.82,969.22c0,9.45-2.08,17.93-6.24,25.46-4.16,7.53-10.25,13.42-18.26,17.69-8.02,4.26-17.52,6.39-28.51,6.39-13.18,0-24.05-2.91-32.61-8.74-6.07-4.19-11.01-9.78-14.8-16.78-3.8-7-5.69-13.8-5.69-20.4,0-3.84,1.14-7.12,3.42-9.85,2.28-2.73,5.18-4.1,8.7-4.1,2.85,0,5.27,1.07,7.24,3.2,1.97,2.13,3.66,5.29,5.06,9.48,1.7,4.97,3.54,9.13,5.51,12.47,1.97,3.34,4.75,6.09,8.33,8.26,3.58,2.17,8.29,3.25,14.12,3.25,8.02,0,14.53-2.18,19.54-6.55,5.01-4.37,7.51-9.82,7.51-16.35,0-5.18-1.35-9.39-4.05-12.62-2.7-3.23-6.19-5.7-10.48-7.4-4.28-1.7-10.01-3.52-17.17-5.43-9.6-2.63-17.63-5.7-24.1-9.22-6.47-3.52-11.6-8.31-15.39-14.38-3.8-6.07-5.69-13.62-5.69-22.64s2-16.23,6.01-22.91c4.01-6.68,9.81-11.81,17.4-15.39,7.59-3.59,16.52-5.38,26.78-5.38,8.2,0,15.29,1.19,21.27,3.57,5.98,2.38,10.95,5.54,14.89,9.48,3.95,3.94,6.83,8.08,8.65,12.41,1.82,4.33,2.73,8.56,2.73,12.68,0,3.77-1.14,7.16-3.42,10.17-2.28,3.02-5.12,4.53-8.52,4.53-3.1,0-5.45-.91-7.06-2.72-1.61-1.81-3.36-4.78-5.24-8.9-2.43-5.89-5.34-10.49-8.74-13.8-3.4-3.3-8.87-4.95-16.4-4.95-6.98,0-12.62,1.79-16.9,5.38-4.28,3.59-6.42,7.9-6.42,12.94,0,3.13.73,5.82,2.19,8.1,1.46,2.27,3.46,4.23,6.01,5.86,2.55,1.63,5.13,2.91,7.74,3.84,2.61.92,6.92,2.27,12.94,4.05,7.53,2.06,14.35,4.33,20.45,6.82,6.1,2.49,11.3,5.5,15.58,9.06,4.28,3.55,7.62,8.04,10.02,13.48,2.4,5.43,3.6,12.09,3.6,19.98Z"/>
      <path class="cls-1" d="M1465.44,999.48v-123.05c0-6.39,1.24-11.19,3.73-14.38,2.49-3.2,5.71-4.79,9.66-4.79s7.36,1.58,9.88,4.74c2.52,3.16,3.78,7.97,3.78,14.44v123.05c0,6.46-1.26,11.29-3.78,14.49-2.52,3.2-5.82,4.79-9.88,4.79s-7.09-1.62-9.61-4.85c-2.52-3.23-3.78-8.04-3.78-14.44Z"/>
      <path class="cls-1" d="M1515.13,951.54v-75.11c0-6.39,1.23-11.19,3.69-14.38,2.46-3.2,5.69-4.79,9.7-4.79s7.52,1.6,9.98,4.79c2.46,3.2,3.69,7.99,3.69,14.38v76.81c0,8.74.83,16.03,2.5,21.89,1.67,5.86,4.63,10.41,8.88,13.64,4.25,3.23,10.2,4.85,17.86,4.85,10.57,0,18.04-3.28,22.41-9.85,4.37-6.57,6.56-16.53,6.56-29.88v-77.45c0-6.46,1.21-11.27,3.64-14.44,2.43-3.16,5.68-4.74,9.75-4.74s7.36,1.58,9.88,4.74c2.52,3.16,3.78,7.97,3.78,14.44v75.11c0,12.22-1.02,22.41-3.05,30.58-2.04,8.17-5.88,15.34-11.52,21.52-4.86,5.26-10.51,9.09-16.94,11.51-6.44,2.41-13.97,3.62-22.59,3.62-10.26,0-19.1-1.3-26.51-3.89-7.41-2.59-13.45-6.61-18.13-12.04-4.68-5.43-8.11-12.39-10.29-20.88-2.19-8.49-3.28-18.63-3.28-30.42Z"/>
      <path class="cls-1" d="M1746.22,969.22c0,9.45-2.08,17.93-6.24,25.46-4.16,7.53-10.25,13.42-18.26,17.69-8.02,4.26-17.52,6.39-28.51,6.39-13.18,0-24.05-2.91-32.61-8.74-6.07-4.19-11.01-9.78-14.8-16.78-3.8-7-5.69-13.8-5.69-20.4,0-3.84,1.14-7.12,3.42-9.85,2.28-2.73,5.18-4.1,8.7-4.1,2.85,0,5.27,1.07,7.24,3.2,1.97,2.13,3.66,5.29,5.06,9.48,1.7,4.97,3.54,9.13,5.51,12.47,1.97,3.34,4.75,6.09,8.33,8.26,3.58,2.17,8.29,3.25,14.12,3.25,8.02,0,14.53-2.18,19.54-6.55,5.01-4.37,7.51-9.82,7.51-16.35,0-5.18-1.35-9.39-4.05-12.62-2.7-3.23-6.19-5.7-10.48-7.4-4.28-1.7-10.01-3.52-17.17-5.43-9.6-2.63-17.63-5.7-24.1-9.22-6.47-3.52-11.6-8.31-15.39-14.38-3.8-6.07-5.69-13.62-5.69-22.64s2-16.23,6.01-22.91c4.01-6.68,9.81-11.81,17.4-15.39,7.59-3.59,16.52-5.38,26.78-5.38,8.2,0,15.29,1.19,21.27,3.57,5.98,2.38,10.95,5.54,14.89,9.48,3.95,3.94,6.83,8.08,8.65,12.41,1.82,4.33,2.73,8.56,2.73,12.68,0,3.77-1.14,7.16-3.42,10.17-2.28,3.02-5.12,4.53-8.52,4.53-3.1,0-5.45-.91-7.06-2.72-1.61-1.81-3.36-4.78-5.24-8.9-2.43-5.89-5.34-10.49-8.74-13.8-3.4-3.3-8.87-4.95-16.4-4.95-6.98,0-12.62,1.79-16.9,5.38-4.28,3.59-6.42,7.9-6.42,12.94,0,3.13.73,5.82,2.19,8.1,1.46,2.27,3.46,4.23,6.01,5.86,2.55,1.63,5.13,2.91,7.74,3.84,2.61.92,6.92,2.27,12.94,4.05,7.53,2.06,14.35,4.33,20.45,6.82,6.1,2.49,11.3,5.5,15.58,9.06,4.28,3.55,7.62,8.04,10.02,13.48,2.4,5.43,3.6,12.09,3.6,19.98Z"/>
      <path class="cls-1" d="M1225.13,994.42c-2.13-2.31-5.29-3.46-9.48-3.46h-62.19v-57.94h27.16c4.13,0,7.19-1.12,9.17-3.36,1.98-2.24,2.97-5.13,2.97-8.68s-1-6.41-3.01-8.58c-2.01-2.17-5.05-3.25-9.12-3.25h-27.16v-24.84h60.12c4.25,0,7.41-1.12,9.48-3.36,2.07-2.24,3.1-5.2,3.1-8.9s-1.03-6.55-3.1-8.79c-2.07-2.24-5.23-3.36-9.48-3.36h-70.46c-3.77,0-6.88.66-9.3,1.97-2.43,1.31-4.21,3.41-5.35,6.29-1.14,2.88-1.71,6.59-1.71,11.13v117.4c0,6.82,1.27,11.76,3.82,14.81,2.55,3.05,6.72,4.58,12.54,4.58h72.52c4.19,0,7.35-1.15,9.48-3.46,2.13-2.31,3.19-5.31,3.19-9s-1.06-6.91-3.19-9.22Z"/>
    </g>
    <g>
      <path class="cls-3" d="M1026.97,1142.75l-25.46-64.97h8.49l21.72,56.85,21.72-56.85h8.49l-25.46,64.97h-9.49Z"/>
      <path class="cls-3" d="M1068.49,1142.75v-64.97h44.62v6.48h-36.77v22.26h33.85v6.2h-33.85v23.54h36.77v6.48h-44.62Z"/>
      <path class="cls-3" d="M1138.57,1142.75v-58.49h-20.71v-6.48h49.18v6.48h-20.62v58.49h-7.85Z"/>
      <path class="cls-3" d="M1174.16,1142.75v-64.97h44.62v6.48h-36.77v22.26h33.85v6.2h-33.85v23.54h36.77v6.48h-44.62Z"/>
      <path class="cls-3" d="M1264.68,1112c6.84,1.73,10.59,6.48,10.59,13.69v10.49c0,2.74.36,5.02.91,6.57h-7.3c-.82-1.73-1.46-3.74-1.46-6.57v-10.31c0-8.58-5.47-11.04-12.96-11.04h-19.44v27.92h-7.85v-64.97h28.93c12.96,0,20.07,6.94,20.07,18.07,0,8.4-3.92,13.96-11.5,16.15ZM1255.28,1083.8h-20.26v25h20.26c9.31,0,13.05-5.11,13.05-12.5s-3.74-12.5-13.05-12.5Z"/>
      <path class="cls-3" d="M1285.48,1142.75v-64.97h7.85v64.97h-7.85Z"/>
      <path class="cls-3" d="M1348.17,1142.75l-36.5-54.11v54.11h-7.57v-64.97h8.76l36.5,54.11v-54.11h7.57v64.97h-8.76Z"/>
      <path class="cls-3" d="M1467.99,1112c6.84,1.73,10.59,6.48,10.59,13.69v10.49c0,2.74.36,5.02.91,6.57h-7.3c-.82-1.73-1.46-3.74-1.46-6.57v-10.31c0-8.58-5.48-11.04-12.96-11.04h-19.44v27.92h-7.85v-64.97h28.93c12.96,0,20.08,6.94,20.08,18.07,0,8.4-3.92,13.96-11.5,16.15ZM1458.59,1083.8h-20.26v25h20.26c9.31,0,13.05-5.11,13.05-12.5s-3.74-12.5-13.05-12.5Z"/>
      <path class="cls-3" d="M1529.95,1142.75l-23.72-32.3-10.4,10.31v21.99h-7.85v-64.97h7.85v33.49l33.21-33.49h9.31l-26.83,26.92,27.74,38.05h-9.31Z"/>
      <path class="cls-3" d="M1545.83,1142.75v-64.97h7.85v58.49h32.94v6.48h-40.79Z"/>
      <path class="cls-3" d="M1593.73,1142.75v-64.97h7.85v64.97h-7.85Z"/>
      <path class="cls-3" d="M1656.42,1142.75l-36.5-54.11v54.11h-7.57v-64.97h8.76l36.5,54.11v-54.11h7.57v64.97h-8.76Z"/>
      <path class="cls-3" d="M1675.95,1142.75v-64.97h7.85v64.97h-7.85Z"/>
      <path class="cls-3" d="M1735.72,1142.75l-23.72-32.3-10.4,10.31v21.99h-7.85v-64.97h7.85v33.49l33.22-33.49h9.31l-26.83,26.92,27.74,38.05h-9.31Z"/>
      <path class="cls-3" d="M1415.78,1142.75l-6.48-16.42h-31.2l-6.48,16.42h-8.12l25.45-64.95h9.49l25.45,64.95h-8.12ZM1393.71,1085.28l-13.59,34.93h27.09l-13.5-34.93ZM1382.12,1064.76c0-2.01,1.46-3.65,4.1-3.65s4.01,1.64,4.01,3.65-1.46,3.65-4.01,3.65-4.1-1.55-4.1-3.65ZM1397.08,1064.76c0-2.01,1.55-3.65,4.1-3.65s4.11,1.64,4.11,3.65-1.46,3.65-4.11,3.65-4.1-1.55-4.1-3.65Z"/>
    </g>
  </g>
  <g>
    <path class="cls-2" d="M321.09,1274.19c-6.17,0-11.19-4.99-11.19-11.19v-62.63c0-42.84,11.46-85.07,33.14-122.06,19.52-33.26,47.12-61.69,79.77-82.2l44.05-27.63v-43.09c0-57.49,46.76-104.27,104.25-104.27s104.25,46.78,104.25,104.27v20.71c0,6.17-4.99,11.18-11.18,11.18s-11.18-5.01-11.18-11.18v-20.71c0-45.15-36.73-81.88-81.9-81.88s-81.88,36.73-81.88,81.88v49.28c0,3.84-1.99,7.44-5.24,9.48l-49.28,30.9c-29.62,18.61-54.64,44.4-72.37,74.59-19.67,33.56-30.06,71.85-30.06,110.73v62.63c0,6.2-5.01,11.19-11.19,11.19"/>
    <path class="cls-2" d="M565.61,1321.64h-240.84c-30.33,0-54.99-24.66-54.99-54.99v-135.53c0-6.17,5.01-11.18,11.19-11.18s11.19,5.01,11.19,11.18v135.53c0,17.99,14.63,32.61,32.61,32.61h240.84c6.17,0,11.18,5.01,11.18,11.19s-5.01,11.19-11.18,11.19"/>
    <path class="cls-2" d="M555.93,935.14l-1.39-1.41c-3.42-3.38-1.01-9.2,3.8-9.2h25.53c4.81,0,7.24,5.81,3.82,9.2l-1.41,1.41c-8.36,8.39-21.97,8.39-30.36,0"/>
    <path class="cls-2" d="M529.13,915.32c-6.03,0-10.94-4.91-10.94-10.94s4.91-10.96,10.94-10.96,10.96,4.91,10.96,10.96-4.93,10.94-10.96,10.94"/>
    <path class="cls-2" d="M613.08,915.32c-6.03,0-10.94-4.91-10.94-10.94s4.91-10.96,10.94-10.96,10.96,4.91,10.96,10.96-4.91,10.94-10.96,10.94"/>
    <g>
      <path class="cls-1" d="M584.21,1321.64c-5.01,0-9.58-3.38-10.86-8.46-2.8-11.23-3.52-31.18,23.22-38.92,1.69-.5,3.47-.87,5.31-1.09v-66.33c0-6.18,5.03-11.19,11.19-11.19s11.19,5.01,11.19,11.19v77.31c0,6.17-5.01,11.19-11.19,11.19h-7.29c-1.02,0-1.99.13-2.87.39-8.55,2.46-9.77,4.37-7.86,12.01,1.49,6-2.13,12.08-8.14,13.57-.9.23-1.83.34-2.71.34"/>
      <path class="cls-1" d="M660.85,1321.64c-5.34,0-10.07-3.84-11.01-9.28-3.42-19.8,4.46-32.62,23.39-38.1,1.81-.54,3.74-.92,5.75-1.12.15-1.81.32-3.62.52-5.41,2.08-19.34,5.83-34.28,11.51-45.61,8.86-17.76,18.72-28.22,33.98-36.16,5.48-2.85,12.23-.72,15.06,4.76,2.88,5.5.74,12.23-4.76,15.1-9.28,4.83-16.57,10.91-24.28,26.31-4.39,8.76-7.51,21.58-9.28,38.12-.54,4.61-.82,9.25-.82,13.91,0,6.17-4.99,11.19-11.18,11.19h-7.31c-1.02,0-1.98.13-2.85.39-6.72,1.94-9.43,2.73-7.69,12.83,1.06,6.08-3.03,11.88-9.13,12.92-.64.12-1.27.17-1.91.17"/>
      <path class="cls-1" d="M653.24,1321.64c-6.18,0-11.18-5.03-11.18-11.19v-77.41c0-6.18,4.99-11.19,11.18-11.19s11.18,5.01,11.18,11.19v77.41c0,6.17-4.99,11.19-11.18,11.19"/>
      <path class="cls-1" d="M634.64,1058.72h-13.92c-2.61,0-3.94,4.42-2.08,7.02l.75,1.07c4.57,6.37,12,6.37,16.57,0l.75-1.07c1.86-2.6.55-7.02-2.08-7.02"/>
      <path class="cls-1" d="M656.89,1049.84c-6.05,0-10.96-4.91-10.96-10.96s4.91-10.94,10.96-10.94,10.94,4.93,10.94,10.94-4.91,10.96-10.94,10.96"/>
      <path class="cls-1" d="M598.48,1049.84c-6.03,0-10.96-4.91-10.96-10.96s4.93-10.94,10.96-10.94,10.94,4.93,10.94,10.94-4.89,10.96-10.94,10.96"/>
      <path class="cls-1" d="M800.25,1321.64h-234.6c-6.18,0-11.19-5.03-11.19-11.19s5.01-11.19,11.19-11.19h234.6c11.93,0,23.31-5.71,30.41-15.31,4.79-6.47,7.41-14.44,7.41-22.5v-60.2c0-6.18,5.03-11.19,11.19-11.19s11.19,5.01,11.19,11.19v60.2c0,12.8-4.19,25.52-11.81,35.82-11.31,15.26-29.39,24.38-48.39,24.38"/>
      <path class="cls-1" d="M808.58,1260.82c-6.17,0-11.16-4.96-11.19-11.13l-.13-25.8c0-65.18-46.21-122.4-109.88-136.1-5.14-1.11-8.81-5.66-8.81-10.94v-77.59l-20.16,13.49c-1.84,1.24-4,1.89-6.23,1.89h-48.98c-2.23,0-4.39-.65-6.22-1.89l-20.16-13.49v233.78c0,6.17-5.01,11.19-11.18,11.19s-11.19-5.03-11.19-11.19v-254.74c0-4.12,2.28-7.91,5.91-9.85,3.64-1.94,8.06-1.73,11.49.57l34.73,23.26h42.19l34.73-23.26c3.42-2.3,7.86-2.51,11.49-.57,3.64,1.94,5.9,5.73,5.9,9.85v89.79c69.32,19.1,118.71,83.19,118.71,155.74l.13,25.75c.03,6.2-4.96,11.23-11.13,11.24h-.05"/>
    </g>
    <path class="cls-3" d="M753.54,1077.08c-3.43,0-6.8-1.56-8.98-4.51-3.69-4.94-2.66-11.96,2.3-15.63,80.59-59.9,118.12-128.08,118.12-214.58,0-78.11-63.52-141.63-141.6-141.63-62.43,0-114.77,43.97-140.61,81.63-2.14,3.1-5.56,4.98-9.48,4.84-3.79-.1-7.25-2.08-9.27-5.28-24.33-39.26-75.55-81.2-146.26-81.2-37.8,0-73.37,14.74-100.13,41.5-26.74,26.74-41.49,62.31-41.49,100.13,0,68.6,24.21,126.38,74.04,176.67,4.37,4.37,4.34,11.46-.07,15.82-4.37,4.34-11.44,4.31-15.82-.08-54.19-54.66-80.52-117.6-80.52-192.4,0-43.81,17.06-84.98,48.04-115.96,30.98-30.98,72.15-48.04,115.95-48.04,71.95,0,126.01,38.44,156.16,78.46,31.32-38.65,85.48-78.46,149.46-78.46,90.41,0,163.98,73.55,163.98,164s-41.59,168.94-127.17,232.53c-1.99,1.47-4.34,2.19-6.65,2.19"/>
    <path class="cls-2" d="M554.54,1308.82v.02-.02ZM565.61,1321.64c-.54,0-1.09-.03-1.66-.12-5.86-.87-9.99-6.17-9.5-11.98-.13-20.42-16.7-36.93-37.03-36.93h-21.18c-6.17,0-11.19-5.01-11.19-11.18l.05-2.08c0-6.72-.44-13.62-1.29-20.56-5.7-46.71,5.35-56.06-33.28-83.36-5.06-3.57-6.25-10.56-2.7-15.6,3.59-5.04,10.56-6.25,15.62-2.68,43.76,30.95,36.1,45.98,42.58,98.92.59,4.74.99,9.48,1.22,14.16h10.17c32.74,0,59.4,26.66,59.4,59.45,0,.79-.03,1.59-.17,2.4-.82,5.55-5.58,9.55-11.04,9.55"/>
    <path class="cls-2" d="M712.31,893.88c-.18-.77-.36-1.56-.52-2.37-.41-2-.8-4.03-1.2-6.07-5.24-26.8-11.17-57.18-43.96-66.14-9.49-2.59-28.15-2.21-37.43-.95-10.15,1.38-16.35,7.48-17.93,17.65l-.17,1.09.26,1.08c1.16,4.81,3.11,9.21,5.79,13.1,3.39,4.9,6.86,7.03,10.54,9.28,2.69,1.64,5.73,3.51,9.73,7.02,2.37,2.07,6.64,5.98,16.39,15.95,3.53,3.61,7.04,7.32,10.44,11,16.05,20.72,33.09,30.84,40.54,26.48,4.43-2.59,6.87-11.1,7.14-12.07,0,0,2.15-7.33.37-15.06ZM694.57,901.75c-.96.43-3.52-2.88-8.65-9.52-2.63-3.4-3.69-5.29-5.8-7.86-13.5-16.41-30.13-32.05-49.43-46.49-.06-.14-.11-.27-.15-.39,1.4-.3,3.66-.45,5.16-.56l1.14-.08c10.17-.71,20.69-1.45,29.32,2.33,11.97,5.24,15.68,18.54,24.13,43.05.45,1.31,6.36,18.57,4.29,19.51Z"/>
    <path class="cls-2" d="M431.92,908.94c.28.97,2.71,9.48,7.14,12.07,7.45,4.35,24.49-5.76,40.54-26.48,3.4-3.69,6.91-7.39,10.44-11,9.75-9.97,14.02-13.88,16.39-15.95,4-3.51,7.05-5.37,9.73-7.02,3.68-2.25,7.15-4.38,10.54-9.28,2.68-3.88,4.63-8.29,5.79-13.1l.26-1.08-.17-1.09c-1.58-10.17-7.78-16.27-17.93-17.65-9.28-1.26-27.94-1.64-37.43.95-32.79,8.96-38.72,39.34-43.96,66.14-.4,2.04-.79,4.06-1.2,6.07-.16.81-.35,1.6-.52,2.37-1.78,7.73.37,15.06.37,15.06ZM453.58,882.25c8.45-24.51,12.17-37.81,24.13-43.05,8.62-3.78,19.14-3.04,29.32-2.33l1.14.08c1.5.1,3.76.26,5.16.56-.04.12-.09.25-.15.39-19.3,14.45-35.93,30.08-49.43,46.49-2.12,2.57-3.18,4.46-5.8,7.86-5.12,6.63-7.68,9.95-8.65,9.52-2.07-.93,3.83-18.19,4.29-19.51Z"/>
  </g>
</svg>