<?xml version="1.0" encoding="UTF-8"?>
<svg id="Layer_1" data-name="Layer 1" xmlns="http://www.w3.org/2000/svg" viewBox="0 0 2000 2000">
  <defs>
    <style>
      .cls-1 {
        fill: #08ddb8;
      }

      .cls-2 {
        fill: #23b5a3;
      }

      .cls-3 {
        fill: #0f726d;
      }
    </style>
  </defs>
  <g>
    <g>
      <path class="cls-2" d="M589.91,1472.95c0,7.9-1.6,16.45-4.81,25.64-3.21,9.2-8.26,18.22-15.14,27.08-6.88,8.86-15.68,16.05-26.37,21.58-10.7,5.53-23.16,8.29-37.39,8.29-10.79,0-20.61-1.24-29.44-3.72-8.84-2.48-16.86-6.35-24.07-11.59-7.21-5.25-13.84-12.16-19.88-20.73-5.4-7.79-10-16.5-13.81-26.15-3.82-9.65-6.68-19.94-8.58-30.89-1.91-10.94-2.86-22.56-2.86-34.86,0-19.97,2.39-37.85,7.19-53.65,4.79-15.8,11.65-29.31,20.58-40.53,8.93-11.23,19.39-19.77,31.39-25.64,12-5.87,24.79-8.8,38.37-8.8,16.56,0,31.3,4.01,44.23,12.02,12.93,8.01,22.84,17.91,29.72,29.7,6.88,11.79,10.33,22.93,10.33,33.43,0,5.75-1.67,10.83-5.02,15.23-3.35,4.4-7.39,6.6-12.14,6.6-5.3,0-9.28-1.52-11.93-4.57-2.65-3.05-5.61-8.29-8.86-15.74-5.4-12.3-11.75-21.49-19.05-27.59-7.3-6.09-16.3-9.14-27-9.14-17.02,0-30.58,7.84-40.67,23.52-10.09,15.68-15.14,37.97-15.14,66.85,0,19.29,2.23,35.35,6.7,48.15,4.46,12.81,10.79,22.37,18.98,28.69,8.18,6.32,17.77,9.48,28.74,9.48,11.91,0,21.98-3.58,30.21-10.75,8.23-7.16,14.44-17.69,18.63-31.56,1.77-6.54,3.95-11.87,6.56-15.99,2.6-4.12,6.79-6.18,12.56-6.18,4.93,0,9.16,2.09,12.7,6.26,3.53,4.18,5.3,9.37,5.3,15.57Z"/>
      <path class="cls-2" d="M830.56,1329.43v180.58h86.68c6.91,0,12.22,1.98,15.91,5.92,3.69,3.95,5.54,8.91,5.54,14.89s-1.82,11.03-5.47,14.81c-3.65,3.78-8.98,5.67-15.98,5.67h-103.24c-9.31,0-16.01-2.42-20.09-7.28-4.08-4.85-6.12-12.69-6.12-23.52v-191.08c0-10.15,1.94-17.77,5.83-22.85,3.89-5.08,9-7.62,15.34-7.62s11.64,2.51,15.62,7.53c3.98,5.02,5.98,12.67,5.98,22.93Z"/>
      <path class="cls-2" d="M1115.25,1476.84c0,15.01-3.31,28.49-9.91,40.45-6.61,11.96-16.28,21.33-29.01,28.09-12.74,6.77-27.83,10.15-45.29,10.15-20.94,0-38.2-4.63-51.81-13.88-9.65-6.66-17.49-15.54-23.52-26.66-6.03-11.11-9.04-21.92-9.04-32.41,0-6.09,1.81-11.31,5.43-15.66,3.62-4.34,8.22-6.52,13.82-6.52,4.53,0,8.37,1.69,11.5,5.08,3.13,3.38,5.81,8.41,8.03,15.06,2.7,7.9,5.62,14.5,8.76,19.8,3.13,5.3,7.55,9.68,13.24,13.12,5.69,3.44,13.17,5.16,22.43,5.16,12.74,0,23.08-3.47,31.04-10.41,7.96-6.94,11.94-15.6,11.94-25.98,0-8.23-2.15-14.92-6.44-20.06-4.29-5.13-9.84-9.05-16.64-11.76-6.8-2.71-15.9-5.58-27.28-8.63-15.25-4.17-28-9.05-38.28-14.64-10.27-5.58-18.43-13.2-24.46-22.85-6.03-9.65-9.04-21.63-9.04-35.96s3.18-25.78,9.55-36.39c6.37-10.6,15.58-18.76,27.64-24.46,12.06-5.7,26.24-8.55,42.55-8.55,13.02,0,24.29,1.89,33.79,5.67,9.5,3.78,17.39,8.8,23.66,15.06,6.27,6.26,10.85,12.84,13.75,19.72,2.89,6.88,4.34,13.6,4.34,20.14,0,5.98-1.81,11.37-5.43,16.16-3.62,4.8-8.13,7.19-13.53,7.19-4.92,0-8.66-1.44-11.22-4.32-2.56-2.88-5.33-7.59-8.32-14.13-3.86-9.36-8.49-16.67-13.89-21.92-5.4-5.25-14.09-7.87-26.05-7.87-11.1,0-20.04,2.85-26.84,8.55-6.8,5.7-10.2,12.55-10.2,20.56,0,4.97,1.16,9.25,3.47,12.86,2.32,3.61,5.5,6.71,9.55,9.31,4.05,2.6,8.15,4.63,12.3,6.09,4.15,1.47,11,3.61,20.55,6.43,11.96,3.27,22.79,6.88,32.49,10.83,9.7,3.95,17.94,8.75,24.75,14.39,6.8,5.64,12.11,12.78,15.92,21.41,3.81,8.63,5.72,19.21,5.72,31.73Z"/>
      <path class="cls-2" d="M1146.42,1524.91v-195.48c0-10.15,1.98-17.77,5.93-22.85,3.95-5.08,9.07-7.62,15.34-7.62s11.7,2.51,15.7,7.53c4,5.02,6.01,12.67,6.01,22.93v195.48c0,10.27-2,17.94-6.01,23.02-4,5.08-9.24,7.62-15.7,7.62s-11.27-2.57-15.27-7.7c-4-5.13-6.01-12.78-6.01-22.93Z"/>
      <path class="cls-2" d="M1225.36,1448.75v-119.32c0-10.15,1.95-17.77,5.86-22.85,3.91-5.08,9.05-7.62,15.41-7.62s11.94,2.54,15.85,7.62c3.91,5.08,5.86,12.69,5.86,22.85v122.02c0,13.88,1.32,25.47,3.98,34.78,2.65,9.31,7.36,16.53,14.11,21.66,6.75,5.14,16.21,7.7,28.36,7.7,16.79,0,28.65-5.22,35.6-15.66,6.95-10.44,10.42-26.26,10.42-47.47v-123.04c0-10.27,1.93-17.91,5.79-22.93,3.86-5.02,9.02-7.53,15.48-7.53s11.7,2.51,15.7,7.53c4,5.02,6.01,12.67,6.01,22.93v119.32c0,19.41-1.62,35.6-4.85,48.57-3.23,12.98-9.33,24.37-18.31,34.19-7.72,8.35-16.69,14.44-26.92,18.28-10.23,3.83-22.19,5.75-35.89,5.75-16.3,0-30.34-2.06-42.11-6.18-11.77-4.12-21.37-10.49-28.8-19.12-7.43-8.63-12.88-19.69-16.35-33.17-3.47-13.48-5.21-29.59-5.21-48.32Z"/>
      <path class="cls-2" d="M1592.46,1476.84c0,15.01-3.31,28.49-9.91,40.45-6.61,11.96-16.28,21.33-29.01,28.09-12.74,6.77-27.83,10.15-45.29,10.15-20.94,0-38.2-4.63-51.81-13.88-9.65-6.66-17.49-15.54-23.52-26.66-6.03-11.11-9.04-21.92-9.04-32.41,0-6.09,1.81-11.31,5.43-15.66,3.62-4.34,8.22-6.52,13.82-6.52,4.53,0,8.37,1.69,11.5,5.08,3.13,3.38,5.81,8.41,8.03,15.06,2.7,7.9,5.62,14.5,8.76,19.8,3.13,5.3,7.55,9.68,13.24,13.12,5.69,3.44,13.17,5.16,22.43,5.16,12.74,0,23.08-3.47,31.04-10.41,7.96-6.94,11.94-15.6,11.94-25.98,0-8.23-2.15-14.92-6.44-20.06-4.29-5.13-9.84-9.05-16.64-11.76-6.8-2.71-15.9-5.58-27.28-8.63-15.25-4.17-28-9.05-38.28-14.64-10.27-5.58-18.43-13.2-24.46-22.85-6.03-9.65-9.04-21.63-9.04-35.96s3.18-25.78,9.55-36.39c6.37-10.6,15.58-18.76,27.64-24.46,12.06-5.7,26.24-8.55,42.55-8.55,13.02,0,24.29,1.89,33.79,5.67,9.5,3.78,17.39,8.8,23.66,15.06,6.27,6.26,10.85,12.84,13.75,19.72,2.89,6.88,4.34,13.6,4.34,20.14,0,5.98-1.81,11.37-5.43,16.16-3.62,4.8-8.13,7.19-13.53,7.19-4.92,0-8.66-1.44-11.22-4.32-2.56-2.88-5.33-7.59-8.32-14.13-3.86-9.36-8.49-16.67-13.89-21.92-5.4-5.25-14.09-7.87-26.05-7.87-11.1,0-20.04,2.85-26.84,8.55-6.8,5.7-10.2,12.55-10.2,20.56,0,4.97,1.16,9.25,3.47,12.86,2.32,3.61,5.5,6.71,9.55,9.31,4.05,2.6,8.15,4.63,12.3,6.09,4.15,1.47,11,3.61,20.55,6.43,11.96,3.27,22.79,6.88,32.49,10.83,9.7,3.95,17.94,8.75,24.75,14.39,6.8,5.64,12.11,12.78,15.92,21.41,3.81,8.63,5.72,19.21,5.72,31.73Z"/>
      <path class="cls-2" d="M764.67,1516.87c-3.38-3.67-8.4-5.5-15.06-5.5h-98.79v-92.04h43.15c6.57,0,11.42-1.78,14.56-5.33,3.14-3.55,4.71-8.15,4.71-13.79s-1.6-10.18-4.78-13.62c-3.19-3.44-8.02-5.16-14.49-5.16h-43.15v-39.46h95.51c6.76,0,11.78-1.78,15.06-5.33,3.28-3.55,4.93-8.26,4.93-14.13s-1.64-10.41-4.93-13.96c-3.28-3.55-8.31-5.33-15.06-5.33h-111.93c-6,0-10.92,1.04-14.78,3.13-3.85,2.09-6.69,5.42-8.49,9.99-1.81,4.57-2.71,10.47-2.71,17.69v186.51c0,10.83,2.02,18.67,6.07,23.52,4.05,4.85,10.68,7.28,19.92,7.28h115.21c6.66,0,11.68-1.83,15.06-5.5,3.38-3.67,5.07-8.43,5.07-14.3s-1.69-10.97-5.07-14.64Z"/>
    </g>
    <g>
      <path class="cls-3" d="M449.87,1752.49l-40.44-103.21h13.48l34.5,90.31,34.5-90.31h13.48l-40.44,103.21h-15.08Z"/>
      <path class="cls-3" d="M515.83,1752.49v-103.21h70.88v10.29h-58.42v35.37h53.78v9.86h-53.78v37.4h58.42v10.29h-70.88Z"/>
      <path class="cls-3" d="M627.15,1752.49v-92.92h-32.91v-10.29h78.13v10.29h-32.76v92.92h-12.47Z"/>
      <path class="cls-3" d="M683.69,1752.49v-103.21h70.88v10.29h-58.42v35.37h53.78v9.86h-53.78v37.4h58.42v10.29h-70.88Z"/>
      <path class="cls-3" d="M827.49,1703.64c10.87,2.75,16.82,10.29,16.82,21.74v16.67c0,4.35.58,7.97,1.45,10.44h-11.6c-1.3-2.75-2.32-5.94-2.32-10.44v-16.38c0-13.62-8.7-17.54-20.58-17.54h-30.88v44.36h-12.47v-103.21h45.95c20.58,0,31.89,11.02,31.89,28.7,0,13.34-6.23,22.18-18.26,25.66ZM812.56,1658.85h-32.18v39.72h32.18c14.79,0,20.73-8.12,20.73-19.86s-5.94-19.86-20.73-19.86Z"/>
      <path class="cls-3" d="M860.55,1752.49v-103.21h12.47v103.21h-12.47Z"/>
      <path class="cls-3" d="M960.13,1752.49l-57.98-85.96v85.96h-12.03v-103.21h13.92l57.98,85.96v-85.96h12.03v103.21h-13.92Z"/>
      <path class="cls-3" d="M1150.47,1703.64c10.87,2.75,16.82,10.29,16.82,21.74v16.67c0,4.35.58,7.97,1.45,10.44h-11.6c-1.3-2.75-2.32-5.94-2.32-10.44v-16.38c0-13.62-8.7-17.54-20.58-17.54h-30.88v44.36h-12.47v-103.21h45.95c20.58,0,31.89,11.02,31.89,28.7,0,13.34-6.23,22.18-18.26,25.66ZM1135.54,1658.85h-32.18v39.72h32.18c14.79,0,20.73-8.12,20.73-19.86s-5.94-19.86-20.73-19.86Z"/>
      <path class="cls-3" d="M1248.9,1752.49l-37.69-51.31-16.53,16.38v34.93h-12.47v-103.21h12.47v53.2l52.76-53.2h14.79l-42.62,42.76,44.07,60.45h-14.79Z"/>
      <path class="cls-3" d="M1274.12,1752.49v-103.21h12.47v92.92h52.33v10.29h-64.8Z"/>
      <path class="cls-3" d="M1350.23,1752.49v-103.21h12.47v103.21h-12.47Z"/>
      <path class="cls-3" d="M1449.81,1752.49l-57.98-85.96v85.96h-12.03v-103.21h13.92l57.98,85.96v-85.96h12.03v103.21h-13.92Z"/>
      <path class="cls-3" d="M1480.84,1752.49v-103.21h12.47v103.21h-12.47Z"/>
      <path class="cls-3" d="M1575.78,1752.49l-37.69-51.31-16.53,16.38v34.93h-12.47v-103.21h12.47v53.2l52.77-53.2h14.79l-42.62,42.76,44.07,60.45h-14.79Z"/>
      <path class="cls-3" d="M1067.53,1752.49l-10.29-26.08h-49.56l-10.29,26.08h-12.9l40.43-103.17h15.07l40.43,103.17h-12.9ZM1032.47,1661.21l-21.59,55.5h43.04l-21.45-55.5ZM1014.07,1628.6c0-3.19,2.32-5.79,6.52-5.79s6.38,2.61,6.38,5.79-2.32,5.8-6.38,5.8-6.52-2.46-6.52-5.8ZM1037.83,1628.6c0-3.19,2.46-5.79,6.52-5.79s6.52,2.61,6.52,5.79-2.32,5.8-6.52,5.8-6.52-2.46-6.52-5.8Z"/>
    </g>
  </g>
  <g>
    <path class="cls-1" d="M603.67,1142.77c-9.8,0-17.78-7.93-17.78-17.78v-99.49c0-68.06,18.21-135.13,52.65-193.9,31.01-52.83,74.85-98,126.72-130.58l69.98-43.89v-68.46c0-91.32,74.29-165.64,165.61-165.64s165.61,74.31,165.61,165.64v32.9c0,9.8-7.93,17.75-17.75,17.75s-17.75-7.96-17.75-17.75v-32.9c0-71.73-58.34-130.08-130.1-130.08s-130.08,58.34-130.08,130.08v78.28c0,6.1-3.17,11.82-8.33,15.07l-78.28,49.08c-47.06,29.57-86.8,70.53-114.96,118.5-31.25,53.31-47.75,114.13-47.75,175.91v99.49c0,9.85-7.96,17.78-17.78,17.78"/>
    <path class="cls-1" d="M992.12,1218.15h-382.59c-48.18,0-87.36-39.18-87.36-87.36v-215.29c0-9.8,7.96-17.75,17.78-17.75s17.78,7.96,17.78,17.75v215.29c0,28.59,23.24,51.8,51.8,51.8h382.59c9.8,0,17.75,7.96,17.75,17.78s-7.96,17.78-17.75,17.78"/>
    <path class="cls-1" d="M976.74,604.17l-2.21-2.24c-5.43-5.38-1.6-14.61,6.04-14.61h40.56c7.64,0,11.5,9.24,6.07,14.61l-2.24,2.24c-13.28,13.34-34.89,13.34-48.23,0"/>
    <path class="cls-1" d="M934.18,572.68c-9.58,0-17.38-7.8-17.38-17.38s7.8-17.41,17.38-17.41,17.41,7.8,17.41,17.41-7.83,17.38-17.41,17.38"/>
    <path class="cls-1" d="M1067.53,572.68c-9.58,0-17.38-7.8-17.38-17.38s7.8-17.41,17.38-17.41,17.41,7.8,17.41,17.41-7.8,17.38-17.41,17.38"/>
    <g>
      <path class="cls-2" d="M1021.67,1218.15c-7.96,0-15.22-5.38-17.25-13.44-4.45-17.83-5.59-49.53,36.89-61.83,2.69-.8,5.51-1.38,8.44-1.73v-105.38c0-9.82,7.99-17.78,17.78-17.78s17.78,7.96,17.78,17.78v122.81c0,9.8-7.96,17.78-17.78,17.78h-11.58c-1.62,0-3.17.21-4.55.61-13.57,3.91-15.52,6.95-12.48,19.08,2.37,9.53-3.38,19.19-12.94,21.56-1.44.37-2.9.53-4.31.53"/>
      <path class="cls-2" d="M1143.41,1218.15c-8.49,0-16-6.1-17.49-14.75-5.43-31.46,7.08-51.82,37.16-60.53,2.87-.85,5.94-1.46,9.13-1.78.24-2.87.51-5.75.83-8.6,3.3-30.72,9.26-54.46,18.29-72.45,14.08-28.21,29.73-44.82,53.98-57.44,8.7-4.52,19.43-1.14,23.93,7.56,4.58,8.73,1.17,19.43-7.56,23.98-14.75,7.67-26.32,17.33-38.57,41.79-6.97,13.92-11.92,34.28-14.75,60.55-.85,7.32-1.3,14.69-1.3,22.09,0,9.8-7.93,17.78-17.75,17.78h-11.6c-1.62,0-3.14.21-4.52.61-10.67,3.09-14.99,4.34-12.22,20.39,1.68,9.66-4.82,18.87-14.51,20.52-1.01.19-2.02.27-3.03.27"/>
      <path class="cls-2" d="M1131.33,1218.15c-9.82,0-17.75-7.99-17.75-17.78v-122.97c0-9.82,7.93-17.78,17.75-17.78s17.75,7.96,17.75,17.78v122.97c0,9.8-7.93,17.78-17.75,17.78"/>
      <path class="cls-2" d="M1101.78,800.48h-22.12c-4.15,0-6.25,7.03-3.3,11.15l1.2,1.7c7.27,10.11,19.06,10.11,26.32,0l1.2-1.7c2.95-4.13.88-11.15-3.3-11.15"/>
      <path class="cls-2" d="M1137.13,786.37c-9.61,0-17.41-7.8-17.41-17.41s7.8-17.38,17.41-17.38,17.38,7.83,17.38,17.38-7.8,17.41-17.38,17.41"/>
      <path class="cls-2" d="M1044.34,786.37c-9.58,0-17.41-7.8-17.41-17.41s7.83-17.38,17.41-17.38,17.38,7.83,17.38,17.38-7.77,17.41-17.38,17.41"/>
      <path class="cls-2" d="M1364.86,1218.15h-372.69c-9.82,0-17.78-7.99-17.78-17.78s7.96-17.78,17.78-17.78h372.69c18.95,0,37.02-9.08,48.31-24.33,7.61-10.27,11.76-22.94,11.76-35.75v-95.63c0-9.82,7.99-17.78,17.78-17.78s17.78,7.96,17.78,17.78v95.63c0,20.34-6.65,40.54-18.76,56.91-17.97,24.25-46.69,38.73-76.87,38.73"/>
      <path class="cls-2" d="M1378.09,1121.53c-9.8,0-17.73-7.88-17.78-17.67l-.21-40.99c0-103.54-73.41-194.44-174.55-216.21-8.17-1.76-14-9-14-17.38v-123.26l-32.02,21.43c-2.93,1.97-6.36,3.01-9.9,3.01h-77.8c-3.54,0-6.97-1.04-9.87-3.01l-32.02-21.43v371.39c0,9.8-7.96,17.78-17.75,17.78s-17.78-7.99-17.78-17.78v-404.68c0-6.55,3.62-12.56,9.4-15.65,5.78-3.09,12.8-2.74,18.26.9l55.18,36.94h67.02l55.18-36.94c5.43-3.65,12.48-3.99,18.26-.9,5.78,3.09,9.37,9.1,9.37,15.65v142.64c110.11,30.34,188.58,132.15,188.58,247.4l.21,40.91c.05,9.85-7.88,17.83-17.67,17.86h-.08"/>
    </g>
    <path class="cls-3" d="M1290.66,829.65c-5.46,0-10.81-2.48-14.27-7.16-5.86-7.85-4.23-19,3.65-24.83,128.03-95.16,187.65-203.46,187.65-340.88,0-124.09-100.9-224.99-224.94-224.99-99.17,0-182.33,69.84-223.37,129.68-3.41,4.92-8.84,7.91-15.07,7.69-6.02-.16-11.53-3.3-14.72-8.38-38.65-62.36-120.02-128.99-232.34-128.99-60.05,0-116.56,23.42-159.06,65.93-42.48,42.48-65.9,98.99-65.9,159.06,0,108.97,38.46,200.77,117.62,280.65,6.95,6.95,6.89,18.21-.11,25.13-6.95,6.89-18.18,6.84-25.13-.13-86.08-86.82-127.92-186.82-127.92-305.64,0-69.6,27.1-135,76.31-184.22,49.21-49.21,114.61-76.31,184.19-76.31,114.29,0,200.19,61.06,248.07,124.65,49.75-61.41,135.8-124.65,237.42-124.65,143.62,0,260.5,116.85,260.5,260.53s-66.06,268.38-202.02,369.39c-3.17,2.34-6.89,3.49-10.57,3.49"/>
    <path class="cls-1" d="M974.53,1197.79v.03-.03ZM992.12,1218.15c-.85,0-1.73-.05-2.64-.19-9.32-1.38-15.86-9.8-15.09-19.03-.21-32.45-26.54-58.66-58.82-58.66h-33.64c-9.8,0-17.78-7.96-17.78-17.75l.08-3.3c0-10.67-.69-21.64-2.05-32.66-9.05-74.21,8.5-89.06-52.88-132.42-8.04-5.67-9.93-16.77-4.29-24.78,5.7-8.01,16.77-9.93,24.81-4.26,69.52,49.16,57.35,73.04,67.65,157.15.93,7.53,1.57,15.07,1.94,22.49h16.16c52.01,0,94.36,42.35,94.36,94.44,0,1.25-.05,2.53-.27,3.81-1.3,8.81-8.86,15.17-17.54,15.17"/>
    <path class="cls-1" d="M1225.17,538.61c-.28-1.22-.57-2.48-.83-3.77-.64-3.18-1.27-6.4-1.9-9.64-8.32-42.57-17.74-90.83-69.83-105.06-15.07-4.12-44.72-3.51-59.45-1.51-16.13,2.19-25.98,11.88-28.49,28.04l-.27,1.74.41,1.71c1.85,7.64,4.94,14.64,9.2,20.8,5.38,7.79,10.9,11.17,16.74,14.75,4.27,2.61,9.1,5.57,15.46,11.15,3.76,3.29,10.55,9.5,26.03,25.34,5.61,5.74,11.19,11.62,16.58,17.48,25.49,32.92,52.56,48.99,64.4,42.07,7.04-4.11,10.91-17.63,11.35-19.17,0,0,3.42-11.64.59-23.93ZM1196.98,551.13c-1.53.69-5.6-4.58-13.74-15.12-4.17-5.4-5.86-8.4-9.22-12.48-21.45-26.07-47.86-50.91-78.52-73.86-.09-.22-.17-.43-.24-.61,2.22-.48,5.81-.72,8.19-.88l1.81-.13c16.16-1.13,32.87-2.31,46.57,3.7,19.01,8.33,24.91,29.46,38.34,68.39.72,2.09,10.1,29.51,6.81,30.99Z"/>
    <path class="cls-1" d="M779.75,562.54c.44,1.54,4.31,15.06,11.35,19.17,11.84,6.91,38.91-9.15,64.4-42.07,5.39-5.86,10.97-11.74,16.58-17.48,15.48-15.84,22.27-22.05,26.03-25.34,6.36-5.57,11.19-8.53,15.46-11.15,5.84-3.58,11.36-6.96,16.74-14.75,4.26-6.17,7.36-13.17,9.2-20.8l.41-1.71-.27-1.74c-2.51-16.16-12.36-25.85-28.49-28.04-14.73-2-44.38-2.61-59.45,1.51-52.08,14.24-61.51,62.49-69.83,105.06-.63,3.23-1.26,6.45-1.9,9.64-.26,1.29-.55,2.55-.83,3.77-2.83,12.29.59,23.93.59,23.93ZM814.15,520.14c13.43-38.93,19.33-60.06,38.34-68.39,13.7-6,30.41-4.83,46.57-3.7l1.81.13c2.38.16,5.97.41,8.19.88-.07.19-.15.39-.24.61-30.66,22.95-57.07,47.79-78.52,73.86-3.36,4.08-5.05,7.08-9.22,12.48-8.14,10.53-12.21,15.8-13.74,15.12-3.29-1.48,6.09-28.9,6.81-30.99Z"/>
  </g>
</svg>